<?xml version="1.0" encoding="UTF-8" standalone="no"?>
<!-- Created with Inkscape (http://www.inkscape.org/) -->

<svg
   xmlns:dc="http://purl.org/dc/elements/1.1/"
   xmlns:cc="http://creativecommons.org/ns#"
   xmlns:rdf="http://www.w3.org/1999/02/22-rdf-syntax-ns#"
   xmlns:svg="http://www.w3.org/2000/svg"
   xmlns="http://www.w3.org/2000/svg"
   xmlns:sodipodi="http://sodipodi.sourceforge.net/DTD/sodipodi-0.dtd"
   xmlns:inkscape="http://www.inkscape.org/namespaces/inkscape"
   id="svg2"
   version="1.1"
   inkscape:version="0.91 r13725"
   width="640"
   height="640"
   viewBox="0 0 640 640"
   sodipodi:docname="pngtree-st-letter-logo-image_67234.svg">
  <metadata
     id="metadata8">
    <rdf:RDF>
      <cc:Work
         rdf:about="">
        <dc:format>image/svg+xml</dc:format>
        <dc:type
           rdf:resource="http://purl.org/dc/dcmitype/StillImage" />
        <dc:title></dc:title>
      </cc:Work>
    </rdf:RDF>
  </metadata>
  <defs
     id="defs6" />
  <sodipodi:namedview
     pagecolor="#ffffff"
     bordercolor="#666666"
     borderopacity="1"
     objecttolerance="10"
     gridtolerance="10"
     guidetolerance="10"
     inkscape:pageopacity="0"
     inkscape:pageshadow="2"
     inkscape:window-width="1301"
     inkscape:window-height="744"
     id="namedview4"
     showgrid="false"
     inkscape:zoom="0.85705566"
     inkscape:cx="197.48754"
     inkscape:cy="326.3392"
     inkscape:window-x="65"
     inkscape:window-y="24"
     inkscape:window-maximized="1"
     inkscape:current-layer="svg2" />
  <g
     id="g4200"
     transform="translate(-1.0559736,30.224971)"
     inkscape:export-xdpi="90"
     inkscape:export-ydpi="90">
    <path
       style="fill:#d7a2a3"
       d="m 285.35492,425.83602 c -2.73699,-0.38792 -3.86899,-2.648 -2.28328,-4.55866 0.62113,-0.74841 3.48397,-1.67199 6.36188,-2.05239 8.64682,-1.14295 10.1933,-3.7447 12.4571,-20.95748 0.47481,-3.61015 1.357,-6.18999 2.27545,-6.65416 2.58232,-1.30507 24.00257,-6.0662 24.8726,-5.52849 0.45511,0.28127 1.13132,4.68906 1.50269,9.79507 1.35523,18.63331 3.08709,21.33033 14.70395,22.89831 11.38921,1.53725 11.92076,1.71275 11.92076,3.9358 0,1.10678 -0.64721,2.26069 -1.43824,2.56423 -1.54045,0.59113 -66.50464,1.10602 -70.37291,0.55777 z m -10.68885,-39.26134 c -8.91226,-1.74644 -20.25325,-5.95308 -23.05859,-8.55298 l -2.73781,-2.53732 0.55094,-19.79442 c 0.56961,-20.46496 1.27542,-24.02638 4.76159,-24.02638 2.14101,0 2.5227,1.15484 3.45238,10.44566 2.08628,20.84924 19.81596,33.6966 44.53149,32.2686 14.40189,-0.8321 24.56679,-6.01238 31.31347,-15.95809 7.74315,-11.41465 8.85246,-27.39358 2.79971,-40.328 l -3.11318,-6.65272 0,-20.38772 c 0,-24.1144 0.17964,-24.38035 9.54985,-14.13773 7.86058,8.59244 14.30321,18.75116 17.23084,27.16957 3.37472,9.70401 4.12644,24.40543 1.78585,34.92595 -5.02384,22.5812 -21.68847,39.6568 -45.06654,46.17793 -7.14567,1.99323 -34.3268,2.89127 -42,1.38765 z m 28.25632,-91.53176 -0.25632,-75.87934 -8.9908,-0.5 c -8.77844,-0.48819 -9.02418,-0.56987 -10.40441,-3.45832 -0.77749,-1.62708 -1.45663,-4.55208 -1.5092,-6.5 l -0.0956,-3.54168 55.5,-0.59138 c 38.96104,-0.41514 57.3861,-0.97264 61.8292,-1.8708 9.16164,-1.85199 8.63878,-3.16768 8.35399,21.02105 -0.13843,11.75746 -0.53537,16.03314 -1.62462,17.5 -2.16502,2.91556 -4.86816,0.73744 -5.78506,-4.66144 -2.4215,-14.25838 -8.58854,-16.61575 -46.00353,-17.58498 l -23.73002,-0.61473 -0.26998,70.07096 -0.26998,70.07096 -2.46478,2.62325 c -3.39019,3.60817 -14.01008,8.66724 -19.49086,9.285 l -4.53172,0.51079 -0.25632,-75.87934 z m -14.4331,-25.15586 c -23.46639,-20.68023 -32.34009,-36.79657 -32.31135,-58.68358 0.0207,-15.74233 4.44147,-27.03027 14.54179,-37.13059 11.43401,-11.43402 25.84833,-16.47482 47.15264,-16.48964 12.21762,-0.008 37.48706,3.2646 39.63737,5.13416 0.98206,0.85384 0.83372,27.55069 -0.18584,33.44617 -0.58707,3.39465 -1.06389,4 -3.15071,4 -2.61775,0 -2.61624,0.003 -5.51138,-10.74239 -2.68226,-9.95523 -11.46892,-16.30126 -26.09788,-18.84878 -21.89917,-3.81358 -38.78927,4.87024 -43.94103,22.59169 -3.84685,13.23268 0.33779,25.80018 13.11235,39.37961 l 7.47767,7.94881 -0.27343,17.7531 c -0.19271,12.51295 -0.62077,17.86863 -1.4502,18.14446 -0.64723,0.21525 -4.69723,-2.71111 -9,-6.50302 z m -66.99444,-31.80908 c -1.35795,-3.53875 5.42434,-34.59609 8.15039,-37.32214 1.3019,-1.3019 2.0002,-1.31875 5.26099,-0.12694 2.06791,0.75582 6.68484,1.86032 10.25984,2.45445 l 6.5,1.08023 0.58453,6 c 0.76788,7.88199 0.015,9.16111 -5.86879,9.97033 -7.65593,1.05296 -11.9106,4.11747 -16.7016,12.02967 -4.30504,7.10964 -6.98393,9.04529 -8.18536,5.9144 z"
       id="path4170"
       inkscape:connector-curvature="0" />
    <path
       style="fill:#a2a0a1"
       d="m 283.66455,424.82873 c -0.27416,-0.27417 -0.49848,-1.28773 -0.49848,-2.25236 0,-1.74102 0.69347,-1.99709 9.11271,-3.36495 1.98699,-0.32283 4.40488,-1.46229 5.37309,-2.53215 2.14045,-2.36517 4.47728,-11.81636 4.49858,-18.19426 0.0181,-5.43459 1.84114,-7.82143 5.97375,-7.82143 1.5484,0 6.57876,-1.09443 11.17857,-2.43207 4.87716,-1.41829 8.74014,-2.0627 9.26735,-1.54595 0.49723,0.48737 1.27346,5.61927 1.72495,11.40422 1.36219,17.45383 3.48921,20.16684 16.86843,21.5156 8.77973,0.88509 11.11374,2.01439 9.1224,4.41381 -1.00142,1.20664 -6.95035,1.42964 -36.65914,1.3742 -19.50505,-0.0364 -35.68805,-0.2905 -35.96221,-0.56466 z m -8.16434,-39.57892 c -10.39066,-1.98243 -20.36859,-5.52977 -23.02446,-8.18564 -2.12145,-2.12145 -2.30572,-3.14872 -2.26112,-12.60514 0.10026,-21.25912 1.9939,-34.08632 4.64124,-31.43898 0.39772,0.39772 1.04289,4.07074 1.43371,8.16226 2.18388,22.86311 19.07055,35.46335 45.87649,34.23144 12.42748,-0.57113 19.15837,-3.15069 26.88364,-10.30293 3.97454,-3.67972 6.73246,-7.37108 8.71542,-11.66521 2.66891,-5.77956 2.90094,-7.20187 2.90094,-17.78203 0,-10.90005 -0.16955,-11.858 -3.25,-18.36227 l -3.25,-6.86228 0,-18.88772 c 0,-14.73762 0.28292,-18.88773 1.28759,-18.88773 0.70818,0 3.33179,2.1375 5.83024,4.75 13.47412,14.08915 19.45823,26.8485 20.51867,43.75 1.90235,30.31987 -16.88615,55.70623 -46.6365,63.01359 -9.0109,2.21328 -30.62394,2.79774 -39.66586,1.07264 z m 28.87514,-15.45689 c -0.90789,-0.5611 -1.25837,-18.93918 -1.4529,-76.18442 l -0.25638,-75.44492 -8.24194,-0.0276 c -9.31167,-0.0312 -10.46806,-0.68905 -12.14021,-6.90593 -0.73831,-2.74497 -0.74114,-4.3154 -0.009,-5.19713 0.8131,-0.97973 13.77795,-1.37667 57.72008,-1.7672 31.16929,-0.27701 58.92144,-0.63831 61.67144,-0.80288 l 5,-0.29921 -0.27128,18.48557 c -0.19029,12.96603 -0.63817,18.85231 -1.5,19.71384 -2.08332,2.08255 -3.73234,-0.0774 -4.72758,-6.19242 -2.09825,-12.89211 -8.72337,-15.35432 -44.47436,-16.52874 -13.73527,-0.4512 -25.32277,-0.60433 -25.75,-0.34029 -0.4276,0.26399 -0.77715,31.90685 -0.77715,70.31741 l 0,69.8374 -3.70437,3.25247 c -5.98832,5.25782 -18.1285,9.9121 -21.08635,8.08405 z M 282.33044,261.91358 c -17.92975,-18.01654 -23.67449,-28.85474 -24.88996,-46.95812 -1.85557,-27.6372 14.9052,-48.99888 42.93343,-54.71887 9.88254,-2.01682 27.06886,-2.01197 38.41117,0.0108 4.88454,0.87112 10.90599,1.88694 13.38099,2.25737 4.40907,0.6599 4.50539,0.75419 4.7666,4.66614 0.14663,2.19595 -0.0784,10.29263 -0.5,17.99263 -0.60512,11.05101 -1.06501,14 -2.18327,14 -0.77916,0 -1.73253,-1.125 -2.11859,-2.5 -3.61169,-12.86354 -4.08089,-13.85234 -8.51048,-17.9354 -15.31218,-14.11427 -47.17322,-13.39908 -59.73984,1.341 -0.98207,1.15192 -3.00672,4.3444 -4.49923,7.0944 -2.43815,4.49238 -2.71373,6.01737 -2.71442,15.02103 -7.2e-4,9.31101 0.23237,10.4946 3.28974,16.705 2.12695,4.32045 5.92826,9.41755 10.75,14.41448 l 7.45949,7.73052 0,16.81448 c 0,14.62879 -0.20455,16.81454 -1.57353,16.81454 -0.86544,0 -7.28338,-5.7375 -14.2621,-12.75 z m -60.27488,-23.88315 c -1.02462,-1.2346 -0.58158,-4.56908 2.39879,-18.05424 2.01053,-9.09698 4.20506,-17.20213 4.87674,-18.01144 0.76878,-0.92633 2.16849,-1.26473 3.7781,-0.91342 1.40628,0.30693 5.48188,1.06374 9.05688,1.68179 9.25684,1.60033 9.45416,1.76877 9.80242,8.36834 0.35258,6.6814 -0.77582,8.55319 -5.17486,8.58408 -7.29943,0.0513 -14.56421,5.67753 -18.92755,14.65862 -2.34447,4.82562 -3.99559,5.87312 -5.81052,3.68627 z"
       id="path4168"
       inkscape:connector-curvature="0" />
    <path
       style="fill:#b6575a"
       d="m 284.37784,422.80054 c 0.22558,-1.17273 1.86609,-1.82673 5.78474,-2.30613 7.35554,-0.89987 10.33484,-4.17016 11.8794,-13.03963 0.61825,-3.55027 1.12409,-8.05056 1.12409,-10.00067 0,-4.37417 1.15521,-5.34333 7.45799,-6.25685 2.72689,-0.39523 7.66093,-1.55986 10.96452,-2.58805 3.96169,-1.23302 6.22401,-1.51758 6.64532,-0.83588 0.35133,0.56846 0.91363,5.54507 1.24956,11.05913 1.00243,16.45416 4.23958,20.57369 16.92055,21.53275 8.02764,0.60713 10.43026,1.40818 9.36985,3.12397 -0.43385,0.70197 -12.40727,1.03251 -36.17967,0.99876 -32.34966,-0.0459 -35.50303,-0.19702 -35.21635,-1.6874 z m -8.87763,-37.55073 c -10.39066,-1.98243 -20.36859,-5.52977 -23.02446,-8.18564 -2.12145,-2.12145 -2.30572,-3.14872 -2.26112,-12.60514 0.10026,-21.25912 1.9939,-34.08632 4.64124,-31.43898 0.39772,0.39772 1.04289,4.07074 1.43371,8.16226 2.18388,22.86311 19.07055,35.46335 45.87649,34.23144 12.42748,-0.57113 19.15837,-3.15069 26.88364,-10.30293 3.97454,-3.67972 6.73246,-7.37108 8.71542,-11.66521 2.66891,-5.77956 2.90094,-7.20187 2.90094,-17.78203 0,-10.90005 -0.16955,-11.858 -3.25,-18.36227 l -3.25,-6.86228 0,-18.88772 c 0,-14.73762 0.28292,-18.88773 1.28759,-18.88773 0.70818,0 3.33179,2.1375 5.83024,4.75 13.47412,14.08915 19.45823,26.8485 20.51867,43.75 1.90235,30.31987 -16.88615,55.70623 -46.6365,63.01359 -9.0109,2.21328 -30.62394,2.79774 -39.66586,1.07264 z m 29.36766,-16.21776 c -0.38599,-0.38599 -0.7018,-34.35444 -0.7018,-75.48545 0,-85.11373 1.0138,-76.9749 -9.48332,-76.1323 -3.55652,0.28549 -7.05108,0.0336 -8.22097,-0.59246 -2.1019,-1.1249 -4.79076,-9.06936 -3.50139,-10.34514 0.38812,-0.38403 26.13068,-0.91504 57.20568,-1.18001 31.075,-0.26497 58.70348,-0.79137 61.39661,-1.16979 l 4.89662,-0.68803 -0.52145,18.18719 c -0.50806,17.72028 -1.4287,22.49965 -3.54335,18.39488 -0.52627,-1.02155 -1.20744,-3.82429 -1.51371,-6.22831 -0.78836,-6.18812 -5.32921,-10.59641 -13.68912,-13.28946 -5.59338,-1.80185 -10.02558,-2.19451 -31.0256,-2.74864 -13.475,-0.35557 -25.2875,-0.28066 -26.25,0.16646 -1.64221,0.76289 -1.75,5.11675 -1.75,70.68888 l 0,69.87592 -3.25,2.74873 c -5.45241,4.61145 -18.25489,9.59083 -20.0482,7.79753 z M 282.33044,261.91358 c -17.92975,-18.01654 -23.67449,-28.85474 -24.88996,-46.95812 -1.85557,-27.6372 14.9052,-48.99888 42.93343,-54.71887 9.88254,-2.01682 27.06886,-2.01197 38.41117,0.0108 4.88454,0.87112 10.90599,1.88694 13.38099,2.25737 4.40907,0.6599 4.50539,0.75419 4.7666,4.66614 0.14663,2.19595 -0.0784,10.29263 -0.5,17.99263 -0.60512,11.05101 -1.06501,14 -2.18327,14 -0.77916,0 -1.73253,-1.125 -2.11859,-2.5 -3.61169,-12.86354 -4.08089,-13.85234 -8.51048,-17.9354 -15.31218,-14.11427 -47.17322,-13.39908 -59.73984,1.341 -0.98207,1.15192 -3.00672,4.3444 -4.49923,7.0944 -2.43815,4.49238 -2.71373,6.01737 -2.71442,15.02103 -7.2e-4,9.31101 0.23237,10.4946 3.28974,16.705 2.12695,4.32045 5.92826,9.41755 10.75,14.41448 l 7.45949,7.73052 0,16.81448 c 0,14.62879 -0.20455,16.81454 -1.57353,16.81454 -0.86544,0 -7.28338,-5.7375 -14.2621,-12.75 z m -59.76706,-24.657 c -0.58284,-1.51885 3.3469,-21.91957 5.89305,-30.593 1.52206,-5.18489 1.77993,-5.23373 14.70964,-2.78597 l 7.5,1.41985 0,6.35402 0,6.35402 -5.51257,1.10074 c -8.08599,1.6146 -12.03545,4.50932 -16.44898,12.05612 -4.29066,7.3367 -5.28551,8.32394 -6.14114,6.09422 z"
       id="path4166"
       inkscape:connector-curvature="0" />
    <path
       style="fill:#605e5f"
       d="m 284.37784,422.80054 c 0.22558,-1.17273 1.86609,-1.82673 5.78474,-2.30613 7.35554,-0.89987 10.33484,-4.17016 11.8794,-13.03963 0.61825,-3.55027 1.12409,-8.05056 1.12409,-10.00067 0,-4.37417 1.15521,-5.34333 7.45799,-6.25685 2.72689,-0.39523 7.66093,-1.55986 10.96452,-2.58805 3.96169,-1.23302 6.22401,-1.51758 6.64532,-0.83588 0.35133,0.56846 0.91363,5.54507 1.24956,11.05913 1.00243,16.45416 4.23958,20.57369 16.92055,21.53275 8.02764,0.60713 10.43026,1.40818 9.36985,3.12397 -0.43385,0.70197 -12.40727,1.03251 -36.17967,0.99876 -32.34966,-0.0459 -35.50303,-0.19702 -35.21635,-1.6874 z m -4.21177,-38.09945 c -14.15891,-1.82566 -25.8903,-6.09549 -28.10206,-10.22821 -1.18782,-2.21945 -0.58633,-29.12385 0.82293,-36.8093 0.6106,-3.32996 0.67671,-3.37854 1.36077,-1 0.39545,1.375 0.76386,3.88082 0.81868,5.5685 0.30092,9.26337 6.27011,20.18407 14.22381,26.02262 10.5109,7.71571 31.16459,10.85005 44.94437,6.82062 24.28657,-7.10178 35.20128,-34.21704 23.85033,-59.25103 -2.86584,-6.32048 -2.91883,-6.75253 -2.91883,-23.79903 0,-13.64188 0.28052,-17.36168 1.30927,-17.36168 1.59482,0 9.03657,8.50832 13.99432,16 10.0071,15.12178 13.0146,34.46343 7.98984,51.38365 -6.13985,20.6751 -21.42752,35.13852 -42.99295,40.67494 -8.89524,2.28365 -25.65188,3.22301 -35.30048,1.97892 z m 24.7018,-15.66904 c -0.38599,-0.38599 -0.7018,-34.35444 -0.7018,-75.48545 0,-85.11373 1.0138,-76.9749 -9.48332,-76.1323 -3.55652,0.28549 -7.05108,0.0336 -8.22097,-0.59246 -2.1019,-1.1249 -4.79076,-9.06936 -3.50139,-10.34514 0.38812,-0.38403 26.13068,-0.91504 57.20568,-1.18001 31.075,-0.26497 58.70348,-0.79137 61.39661,-1.16979 l 4.89662,-0.68803 -0.52145,18.18719 c -0.50806,17.72028 -1.4287,22.49965 -3.54335,18.39488 -0.52627,-1.02155 -1.20744,-3.82429 -1.51371,-6.22831 -0.78836,-6.18812 -5.32921,-10.59641 -13.68912,-13.28946 -5.59338,-1.80185 -10.02558,-2.19451 -31.0256,-2.74864 -13.475,-0.35557 -25.2875,-0.28066 -26.25,0.16646 -1.64221,0.76289 -1.75,5.11675 -1.75,70.68888 l 0,69.87592 -3.25,2.74873 c -5.45241,4.61145 -18.25489,9.59083 -20.0482,7.79753 z M 285.9937,264.38332 c -4.76981,-4.52086 -10.73852,-10.83238 -13.26381,-14.0256 -23.6914,-29.95777 -17.25186,-69.69083 13.64125,-84.16879 14.6687,-6.87444 31.93456,-8.15941 55.79493,-4.15242 l 13.5,2.26713 -0.0417,4.67997 c -0.1796,20.17678 -0.59096,28.67997 -1.3874,28.67997 -0.51101,0 -1.42336,-2.3625 -2.02744,-5.25 -2.22163,-10.61928 -8.27921,-17.32417 -19.76115,-21.87283 -4.95313,-1.96222 -7.6465,-2.2969 -18.78231,-2.33394 -12.26008,-0.0408 -13.35484,0.12066 -19.23431,2.83629 -7.98462,3.68796 -14.25746,10.31369 -17.20326,18.17106 -1.83855,4.90399 -2.1718,7.53089 -1.89646,14.94942 0.43779,11.79574 3.2994,17.75538 13.95971,29.07279 l 7.87432,8.35969 0,15.53376 c 0,11.77648 -0.30235,15.52644 -1.25,15.5035 -0.6875,-0.0167 -5.15257,-3.72915 -9.92237,-8.25 z m -63.43032,-27.12674 c -0.58284,-1.51885 3.3469,-21.91957 5.89305,-30.593 1.52206,-5.18489 1.77993,-5.23373 14.70964,-2.78597 l 7.5,1.41985 0,6.35402 0,6.35402 -5.51257,1.10074 c -8.08599,1.6146 -12.03545,4.50932 -16.44898,12.05612 -4.29066,7.3367 -5.28551,8.32394 -6.14114,6.09422 z"
       id="path4164"
       inkscape:connector-curvature="0" />
    <path
       style="fill:#a0090e"
       d="m 285.77342,422.48989 c 0.28088,-0.45447 1.84858,-0.82631 3.48379,-0.82631 9.16193,0 13.50472,-5.9474 14.58654,-19.97609 0.59187,-7.67524 0.74602,-8.08571 3.22196,-8.57891 1.4302,-0.2849 6.34814,-1.40633 10.92876,-2.49206 4.58062,-1.08574 8.67612,-1.75916 9.10111,-1.49651 0.42499,0.26266 1.0263,4.7282 1.33625,9.92341 1.00277,16.80782 4.73881,21.45823 18.0014,22.40716 3.73072,0.26693 6.99449,0.82733 7.25283,1.24534 0.25834,0.418 -15.03123,0.72856 -33.97681,0.69014 -18.94559,-0.0384 -34.21671,-0.4417 -33.93583,-0.89617 z m -5.60735,-37.7888 c -14.15891,-1.82566 -25.8903,-6.09549 -28.10206,-10.22821 -1.18782,-2.21945 -0.58633,-29.12385 0.82293,-36.8093 0.6106,-3.32996 0.67671,-3.37854 1.36077,-1 0.39545,1.375 0.76386,3.88082 0.81868,5.5685 0.30092,9.26337 6.27011,20.18407 14.22381,26.02262 10.5109,7.71571 31.16459,10.85005 44.94437,6.82062 24.28657,-7.10178 35.20128,-34.21704 23.85033,-59.25103 -2.86584,-6.32048 -2.91883,-6.75253 -2.91883,-23.79903 0,-13.64188 0.28052,-17.36168 1.30927,-17.36168 1.59482,0 9.03657,8.50832 13.99432,16 10.0071,15.12178 13.0146,34.46343 7.98984,51.38365 -6.13985,20.6751 -21.42752,35.13852 -42.99295,40.67494 -8.89524,2.28365 -25.65188,3.22301 -35.30048,1.97892 z m 25.58695,-16.7839 c -0.32282,-0.32282 -0.58695,-34.20684 -0.58695,-75.29783 0,-65.71644 -0.1835,-74.86318 -1.52418,-75.97585 -1.07696,-0.89379 -3.71695,-1.09911 -8.99744,-0.69975 -6.84894,0.51799 -7.59879,0.38599 -8.97582,-1.57999 -0.82641,-1.17986 -1.50256,-3.371 -1.50256,-4.86919 l 0,-2.72399 56.25,-0.45821 c 30.9375,-0.25202 58.1625,-0.77337 60.5,-1.15855 l 4.25,-0.70032 0,8.45141 c 0,12.48983 -1.17195,26.77042 -2.14746,26.16752 -0.4689,-0.28979 -0.85324,-1.96284 -0.85409,-3.71788 -0.004,-7.38578 -5.54682,-13.24022 -15.41007,-16.27524 -6.50442,-2.00147 -56.28413,-3.91314 -58.30144,-2.23891 -1.02672,0.8521 -1.28694,15.15927 -1.28694,70.75852 l 0,69.69047 -2.75,2.55764 c -1.5125,1.4067 -3.875,3.25253 -5.25,4.10185 -3.14992,1.94566 -12.63076,4.7506 -13.41305,3.9683 z M 285.9937,264.38332 c -4.76981,-4.52086 -10.73852,-10.83238 -13.26381,-14.0256 -23.6914,-29.95777 -17.25186,-69.69083 13.64125,-84.16879 14.6687,-6.87444 31.93456,-8.15941 55.79493,-4.15242 l 13.5,2.26713 -0.0417,4.67997 c -0.1796,20.17678 -0.59096,28.67997 -1.3874,28.67997 -0.51101,0 -1.42336,-2.3625 -2.02744,-5.25 -2.22163,-10.61928 -8.27921,-17.32417 -19.76115,-21.87283 -4.95313,-1.96222 -7.6465,-2.2969 -18.78231,-2.33394 -12.26008,-0.0408 -13.35484,0.12066 -19.23431,2.83629 -7.98462,3.68796 -14.25746,10.31369 -17.20326,18.17106 -1.83855,4.90399 -2.1718,7.53089 -1.89646,14.94942 0.43779,11.79574 3.2994,17.75538 13.95971,29.07279 l 7.87432,8.35969 0,15.53376 c 0,11.77648 -0.30235,15.52644 -1.25,15.5035 -0.6875,-0.0167 -5.15257,-3.72915 -9.92237,-8.25 z m -62.34408,-30.96974 c 2.57078,-13.00486 5.93844,-27.55329 6.73471,-29.09424 0.6767,-1.30957 1.58047,-1.65567 3.11736,-1.1938 1.19041,0.35774 5.31438,1.21777 9.16438,1.91118 l 7,1.26074 0,5.35402 0,5.35402 -5.60539,1.11927 c -3.08296,0.61561 -6.80439,1.9049 -8.26984,2.8651 -3.06362,2.00736 -7.7697,8.19517 -9.6079,12.63298 -1.67805,4.05116 -3.34825,3.91319 -2.53332,-0.20927 z"
       id="path4162"
       inkscape:connector-curvature="0" />
    <path
       style="fill:#9e0a0e"
       d="m 285.77342,422.48989 c 0.28088,-0.45447 1.84858,-0.82631 3.48379,-0.82631 9.16193,0 13.50472,-5.9474 14.58654,-19.97609 0.59187,-7.67524 0.74602,-8.08571 3.22196,-8.57891 1.4302,-0.2849 6.34814,-1.40633 10.92876,-2.49206 4.58062,-1.08574 8.67612,-1.75916 9.10111,-1.49651 0.42499,0.26266 1.0263,4.7282 1.33625,9.92341 1.00277,16.80782 4.73881,21.45823 18.0014,22.40716 3.73072,0.26693 6.99449,0.82733 7.25283,1.24534 0.25834,0.418 -15.03123,0.72856 -33.97681,0.69014 -18.94559,-0.0384 -34.21671,-0.4417 -33.93583,-0.89617 z m 1.14265,-37.48859 c 0.6875,-0.27741 1.8125,-0.27741 2.5,0 0.6875,0.27741 0.125,0.50439 -1.25,0.50439 -1.375,0 -1.9375,-0.22698 -1.25,-0.50439 z m 9.13732,-0.0307 c 3.12987,-0.30519 5.2078,-1.24828 7.25,-3.29048 1.57448,-1.57447 2.86268,-3.1508 2.86268,-3.50295 0,-0.35215 -2.5875,-0.3872 -5.75,-0.0779 -3.1625,0.30931 -6.425,0.11971 -7.25,-0.42133 -1.04548,-0.68564 1.09638,-0.98835 7.0685,-0.99903 9.94735,-0.0178 17.45973,-1.94001 24.12872,-6.17394 17.41634,-11.0571 23.14694,-33.89354 13.72161,-54.68066 -2.86584,-6.3205 -2.91883,-6.75255 -2.91883,-23.79905 0,-13.64188 0.28052,-17.36168 1.30927,-17.36168 1.59482,0 9.03657,8.50832 13.99432,16 10.0071,15.12178 13.0146,34.46343 7.98984,51.38365 -7.60342,25.60348 -29.16202,41.42852 -58.47898,42.92635 -4.57295,0.23364 -6.34015,0.23229 -3.92713,-0.003 z m 18.00859,-3.39396 c 2.40527,-0.72066 4.10409,-1.84287 4.10409,-2.71111 0,-0.8148 0.7875,-2.07926 1.75,-2.8099 0.9625,-0.73065 1.3,-1.32695 0.75,-1.32511 -1.95978,0.007 -13.96732,3.79191 -12.25,3.86182 2.14119,0.0872 2.3102,1.91904 0.25,2.70961 -0.825,0.31659 -1.5,1.02561 -1.5,1.57561 0,0.55 0.62816,0.75895 1.39591,0.46434 0.76775,-0.29462 3.24275,-1.08899 5.5,-1.76528 z m 12.82367,-4.02895 c 2.07923,-1.16375 4.00542,-2.45096 4.28042,-2.86047 0.275,-0.4095 1.9481,-1.48645 3.718,-2.39322 3.75529,-1.92393 8.282,-6.5311 8.282,-8.4292 0,-0.72558 0.45318,-1.03915 1.00706,-0.69683 0.55389,0.34231 1.31312,-0.17516 1.68718,-1.14996 0.37406,-0.97479 1.64846,-2.69081 2.83199,-3.81338 1.18353,-1.12257 2.66465,-3.27853 3.29138,-4.79103 1.15413,-2.78529 0.44596,-3.61357 -1.45999,-1.70762 -1.40265,1.40265 -3.79091,-1.47085 -2.97964,-3.58501 0.4461,-1.16249 1.05034,-1.31705 2.33606,-0.59753 2.27725,1.27442 5.28596,-0.33381 5.28596,-2.82547 0,-1.20411 -0.82052,-2.0118 -2.25,-2.21482 -2.74182,-0.3894 -3.64566,-4.26188 -1.21263,-5.19552 2.05553,-0.78878 3.46263,0.0314 3.46263,2.01832 0,2.0361 2.40975,1.15739 2.83457,-1.03363 0.18402,-0.94905 -0.004,-2.48676 -0.41686,-3.41713 -1.10908,-2.49669 -1.07234,-12.58074 0.0488,-13.38439 1.36864,-0.9811 0.65678,-8.88029 -1.03774,-11.51534 -0.78099,-1.21448 -1.34423,-3.01448 -1.25164,-4 0.26598,-2.83127 -2.48412,-8.38802 -3.88525,-7.85036 -0.72988,0.28008 -1.19613,-0.23437 -1.11478,-1.23003 0.2877,-3.52195 -0.21818,-5.21149 -1.56047,-5.21149 -0.76085,0 -1.67205,-0.7875 -2.02488,-1.75 -1.0827,-2.95353 -3.50608,-6.93401 -4.95223,-8.13421 -2.57208,-2.13464 -3.39282,1.10824 -3.8508,15.21527 -0.3878,11.94492 -0.21722,14.12685 1.25082,16 2.39518,3.05613 5.96046,17.93778 5.96046,24.8792 0,3.91451 -0.82323,7.85545 -2.50603,11.99687 -1.95004,4.79907 -2.22737,6.36459 -1.25,7.05626 1.00022,0.70784 0.98828,0.99656 -0.0586,1.41762 -0.72305,0.2908 -1.72441,1.60655 -2.22525,2.92386 -0.50084,1.31732 -1.63717,2.39513 -2.52518,2.39513 -1.94344,0 -7.43494,4.9832 -7.43494,6.74675 0,0.68929 -1.125,1.25325 -2.5,1.25325 -1.60606,0 -2.5,0.5619 -2.5,1.57143 0,0.86428 -0.67914,2.25056 -1.50919,3.08062 -0.83006,0.83005 -1.2535,1.92291 -0.94098,2.42857 0.76677,1.24067 0.84951,1.22152 5.16975,-1.19653 z m 21.28042,-55.94313 c 0,-1.13246 0.45,-1.7809 1,-1.44098 0.55,0.33992 1,1.26648 1,2.05902 0,0.79254 -0.45,1.44098 -1,1.44098 -0.55,0 -1,-0.92656 -1,-2.05902 z m 5.39861,-5.34461 c -1.03541,-2.69822 0.16209,-4.28572 1.43654,-1.9044 0.77144,1.44146 0.82614,2.39933 0.16049,2.81072 -0.55537,0.34324 -1.27404,-0.0646 -1.59703,-0.90632 z m -13.5442,-4.27293 c -0.74227,-1.72461 0.30126,-26.32344 1.11669,-26.32344 1.39099,0 1.76488,23.20911 0.40796,25.32344 -0.64364,1.0029 -1.32973,1.4529 -1.52465,1 z m 10.37476,-3.51094 c 0.2177,-0.65313 0.93051,-1.36573 1.58401,-1.58356 0.73075,-0.24358 0.95424,0.21359 0.58051,1.1875 -0.69752,1.81771 -2.76448,2.19592 -2.16452,0.39606 z m -4.60422,-0.52088 c -0.31382,-0.31382 -0.33125,-0.95781 -0.0387,-1.4311 0.70205,-1.13593 3.4138,-1.11012 3.4138,0.0325 0,1.10376 -2.59467,2.17899 -3.37505,1.39861 z m -76.86725,74.66023 c -9.28199,-2.28186 -15.27127,-5.17443 -16.85976,-8.14255 -1.18782,-2.21945 -0.58633,-29.12385 0.82293,-36.8093 0.6106,-3.32996 0.67671,-3.37854 1.36077,-1 0.39545,1.375 0.76386,3.88082 0.81868,5.5685 0.46067,14.18115 11.75428,27.79347 26.58238,32.04005 3.58451,1.02656 6.5173,2.11172 6.5173,2.41148 0,0.29975 -2.00684,0.63234 -4.45964,0.73909 -3.56982,0.15537 -4.34658,-0.10053 -3.89301,-1.28251 0.42168,-1.09888 -0.19684,-1.47661 -2.41792,-1.47661 -1.6415,0 -3.54474,-0.675 -4.22943,-1.5 -0.68469,-0.825 -1.75229,-1.50047 -2.37244,-1.50104 -0.62016,-5.6e-4 -3.51349,-2.28972 -6.42962,-5.08701 -3.20209,-3.0716 -5.87553,-4.86591 -6.75,-4.53035 -1.49342,0.57308 -1.84857,-1.01981 -1.47854,-6.6316 0.0997,-1.5125 -0.27226,-2.75 -0.82665,-2.75 -1.5907,0 -2.28562,3.49403 -1.24124,6.24094 0.61203,1.60978 0.60175,2.8558 -0.0288,3.48634 -0.53967,0.53967 -0.84431,3.63431 -0.67697,6.87697 0.30043,5.82166 0.33995,5.89195 3.1455,5.5936 1.89619,-0.20166 2.61128,0.0699 2.14986,0.81653 -0.38026,0.61528 0.14118,1.74944 1.15875,2.52035 2.15468,1.63238 6.95306,1.91678 7.85014,0.46527 0.94088,-1.52238 2.51122,-1.19281 1.90044,0.39885 -0.72967,1.90149 1.03392,2.81991 8.09956,4.21799 4.5532,0.90094 5.15603,1.19339 2.5,1.21279 -1.925,0.0141 -6.98403,-0.83094 -11.2423,-1.87778 z m 19.2423,-1.95185 c 0,-0.55 1.2375,-0.96837 2.75,-0.92971 2.43684,0.0623 2.52225,0.16815 0.75,0.92971 -2.73138,1.17371 -3.5,1.17371 -3.5,0 z m -11.1875,-1.68311 c 0.72187,-0.28887 1.58438,-0.25335 1.91667,0.0789 0.33229,0.33229 -0.25834,0.56864 -1.3125,0.52522 -1.16495,-0.048 -1.4019,-0.28494 -0.60417,-0.60416 z m -15.8125,-4.81689 c 0,-1.68305 0.18315,-1.75069 2.41821,-0.89301 2.2344,0.85742 1.96604,2.39301 -0.41821,2.39301 -1.11111,0 -2,-0.66667 -2,-1.5 z m 44.58695,-6.24639 c -0.32282,-0.32282 -0.58695,-34.20684 -0.58695,-75.29783 0,-65.71644 -0.1835,-74.86318 -1.52418,-75.97585 -1.07696,-0.89379 -3.71695,-1.09911 -8.99744,-0.69975 -6.84894,0.51799 -7.59879,0.38599 -8.97582,-1.57999 -0.82641,-1.17986 -1.50256,-3.371 -1.50256,-4.86919 l 0,-2.72399 56.25,-0.45821 c 30.9375,-0.25202 58.1625,-0.77337 60.5,-1.15855 l 4.25,-0.70032 0,8.45141 c 0,12.48983 -1.17195,26.77042 -2.14746,26.16752 -0.4689,-0.28979 -0.85324,-1.96284 -0.85409,-3.71788 -0.004,-7.38578 -5.54682,-13.24022 -15.41007,-16.27524 -6.50442,-2.00147 -56.28413,-3.91314 -58.30144,-2.23891 -1.02672,0.8521 -1.28694,15.15927 -1.28694,70.75852 l 0,69.69047 -2.75,2.55764 c -1.5125,1.4067 -3.875,3.25253 -5.25,4.10185 -3.14992,1.94566 -12.63076,4.7506 -13.41305,3.9683 z M 285.9937,264.38332 C 267.72263,247.06587 260.41507,234.11 258.61504,215.84253 c -2.48764,-25.24568 13.10576,-47.08542 38.27534,-53.60751 7.14302,-1.85094 7.27569,-1.86171 7.27569,-0.59049 0,0.53952 -1.125,1.2633 -2.5,1.60841 -1.375,0.3451 -2.5,0.97099 -2.5,1.39086 0,0.41988 -1.77262,0.71693 -3.93916,0.66012 -2.71481,-0.0712 -4.6574,0.552 -6.25,2.00502 -1.27096,1.15956 -3.99694,2.64816 -6.05774,3.308 -2.06079,0.65983 -4.31079,1.98239 -5,2.93902 -0.6892,0.95663 -2.0406,2.03307 -3.0031,2.39209 -0.9625,0.35902 -1.75,1.34188 -1.75,2.18415 0,0.84226 -0.65394,1.53138 -1.45321,1.53138 -1.64055,0 -5.86328,8.73286 -5.1374,10.62447 0.25945,0.67612 -0.13773,1.73511 -0.88263,2.35332 -1.99355,1.6545 -5.68547,9.95639 -4.95401,11.13991 0.34625,0.56026 1.21469,0.79411 1.92986,0.51967 0.72788,-0.27931 1.53169,0.3858 1.82589,1.51082 0.40125,1.53439 0.1478,1.86482 -1.07151,1.39693 -2.00449,-0.76919 -3.22186,1.08123 -3.24168,4.92739 l -0.0153,2.9725 1.62804,-2.32435 c 1.9801,-2.82698 3.33312,-1.36404 3.35665,3.62934 0.0152,3.22442 -1.35144,4.3999 -2.32523,2 -0.38929,-0.95942 -0.73585,-0.92239 -1.49081,0.15932 -1.18332,1.69545 -0.43651,4.11395 1.17621,3.80906 0.63533,-0.12011 1.30746,1.13162 1.49363,2.78162 0.18616,1.65 0.72983,3.47342 1.20814,4.05204 0.47832,0.57862 0.62136,2.00157 0.31787,3.16212 -0.3401,1.30055 0.48677,3.88229 2.15527,6.72936 2.10529,3.59241 3.12645,4.48615 4.59365,4.02048 1.30102,-0.41293 1.88658,-0.11229 1.88658,0.96861 0,0.86207 -0.45,1.56739 -1,1.56739 -2.27421,0 -0.75816,2.67543 2.51487,4.43807 2.61953,1.41071 3.36655,2.36019 2.93261,3.72741 -0.35235,1.11015 -0.0897,1.83452 0.66525,1.83452 0.68612,0 3.26648,2.1375 5.73412,4.75 2.46764,2.6125 4.17925,4.21859 3.80358,3.5691 -1.25644,-2.17221 1.48887,-2.56523 2.98619,-0.42751 0.81223,1.15963 1.90127,2.10841 2.42008,2.10841 0.54098,0 0.9433,-5.35493 0.9433,-12.55532 l 0,-12.55533 -5.44938,-2.49481 c -3.62605,-1.66006 -5.27359,-2.95289 -4.92401,-3.86388 0.534,-1.39159 -1.66692,-5.43909 -4.88924,-8.99133 -0.97822,-1.07838 -2.52549,-3.6536 -3.43838,-5.72272 -1.30777,-2.96412 -1.94482,-3.52551 -3.00357,-2.64683 -1.95321,1.62103 -2.67077,0.34843 -0.83733,-1.48501 1.30083,-1.30083 1.39892,-2.66127 0.60346,-8.36905 -1.02825,-7.3781 0.17194,-14.99898 3.32124,-21.08906 0.91771,-1.77467 1.21666,-3.22666 0.66433,-3.22666 -0.63484,0 -0.58283,-0.9249 0.14138,-2.51436 0.81622,-1.79141 1.67242,-2.34717 2.97778,-1.93286 1.33202,0.42276 2.09861,-0.11928 2.80819,-1.98564 0.55574,-1.4617 1.76178,-2.56714 2.80078,-2.56714 1.00361,0 2.25225,-0.40759 2.77475,-0.90576 1.72462,-1.64432 8.48355,-5.09424 9.98041,-5.09424 0.80827,0 1.46958,-0.42171 1.46958,-0.93713 0,-0.51542 1.51287,-0.69162 3.36193,-0.39156 2.41119,0.39128 3.97067,0.0243 5.51456,-1.29759 l 2.15264,-1.84314 -2.26456,-1.74306 c -2.19378,-1.68856 -1.92072,-1.74209 8.73543,-1.71238 6.65353,0.0186 16.3343,0.92648 24.5,2.29779 l 13.5,2.26713 -0.0417,4.67997 c -0.1796,20.17678 -0.59096,28.67997 -1.3874,28.67997 -0.51101,0 -1.42336,-2.3625 -2.02744,-5.25 -2.22163,-10.61928 -8.27921,-17.32417 -19.76115,-21.87283 -4.95313,-1.96222 -7.6465,-2.2969 -18.78231,-2.33394 -12.26008,-0.0408 -13.35484,0.12066 -19.23431,2.83629 -7.98462,3.68796 -14.25746,10.31369 -17.20326,18.17106 -1.83855,4.90399 -2.1718,7.53089 -1.89646,14.94942 0.43779,11.79574 3.2994,17.75538 13.95971,29.07279 l 7.87432,8.35969 0,15.53376 c 0,11.77648 -0.30235,15.52644 -1.25,15.5035 -0.6875,-0.0167 -5.15257,-3.72915 -9.92237,-8.25 z m 8.02076,2.18213 c -1.86606,-1.15941 -2.35019,0.7881 -0.69293,2.78748 1.23166,1.48592 1.37379,1.47217 1.69293,-0.1638 0.19162,-0.98224 -0.25838,-2.1629 -1,-2.62368 z m 59.69239,-100.50386 c -0.51844,-1.56775 -9.53489,-2.64778 -11.12028,-1.33203 -0.94645,0.78548 -1.80731,0.54721 -3.25566,-0.90114 -1.49624,-1.49624 -3.9733,-2.13409 -10.31691,-2.65664 -4.59136,-0.3782 -9.92293,-0.53477 -11.84793,-0.34792 -3.0389,0.29496 -3.51329,0.70202 -3.60091,3.08972 -0.1238,3.37342 2.74165,3.7764 5.33294,0.75 1.69251,-1.97671 4.32276,-2.61187 5.58576,-1.34888 0.35812,0.35812 -0.12884,1.22145 -1.08213,1.91851 -1.90387,1.39214 -1.53406,1.54723 6.91289,2.89904 2.00671,0.32114 4.77768,1.47207 6.15773,2.55761 1.38005,1.08555 3.15685,1.97372 3.94844,1.97372 1.3885,0 4.34277,2.08537 7.99292,5.64207 0.96121,0.93659 2.31121,3.27249 3,5.19088 1.1992,3.33992 1.28219,3.06728 1.95496,-6.42248 0.38643,-5.45076 0.53861,-10.40637 0.33818,-11.01246 z m -21.29078,0.57083 c -1.2375,-0.49742 -2.25,-1.14389 -2.25,-1.43662 0,-1.04951 2.65431,-0.50456 4.55887,0.93598 2.16982,1.64117 1.10372,1.87233 -2.30887,0.50064 z m -45.02083,76.84366 c 0.61807,-1.85422 2.77083,-2.16176 2.77083,-0.39583 0,0.87083 -0.7125,1.58333 -1.58333,1.58333 -0.87084,0 -1.40521,-0.53438 -1.1875,-1.1875 z m -63.74562,-10.0625 c 2.57078,-13.00486 5.93844,-27.55329 6.73471,-29.09424 0.6767,-1.30957 1.58047,-1.65567 3.11736,-1.1938 1.19041,0.35774 5.31438,1.21777 9.16438,1.91118 l 7,1.26074 0,5.35402 0,5.35402 -5.60539,1.11927 c -3.08296,0.61561 -6.80439,1.9049 -8.26984,2.8651 -3.06362,2.00736 -7.7697,8.19517 -9.6079,12.63298 -1.67805,4.05116 -3.34825,3.91319 -2.53332,-0.20927 z m 50.51645,-7.67032 c 1.54174,-1.21594 2.85775,-1.61548 3.43333,-1.04235 1.18813,1.18304 0.75721,1.52793 -2.93333,2.34768 l -3,0.66637 2.5,-1.9717 z m -4,-2.52066 c 0,-0.85746 0.45,-1.55902 1,-1.55902 0.55,0 1,0.42344 1,0.94098 0,0.51754 -0.45,1.2191 -1,1.55902 -0.55,0.33992 -1,-0.0835 -1,-0.94098 z m 0.17965,-37.84256 c -0.61033,-0.73539 -0.70852,-1.86073 -0.22993,-2.6351 0.65438,-1.05882 1.07518,-0.90335 1.94279,0.7178 0.60912,1.13815 1.10749,2.32394 1.10749,2.6351 0,1.02935 -1.73731,0.58719 -2.82035,-0.7178 z"
       id="path4160"
       inkscape:connector-curvature="0" />
    <path
       style="fill:#ffff00"
       d="m 285.77342,422.48989 c 0.28088,-0.45447 1.84858,-0.82631 3.48379,-0.82631 9.16193,0 13.50472,-5.9474 14.58654,-19.97609 0.59187,-7.67524 0.74602,-8.08571 3.22196,-8.57891 1.4302,-0.2849 6.34814,-1.40633 10.92876,-2.49206 4.58062,-1.08574 8.67612,-1.75916 9.10111,-1.49651 0.42499,0.26266 1.0263,4.7282 1.33625,9.92341 1.00277,16.80782 4.73881,21.45823 18.0014,22.40716 3.73072,0.26693 6.99449,0.82733 7.25283,1.24534 0.25834,0.418 -15.03123,0.72856 -33.97681,0.69014 -18.94559,-0.0384 -34.21671,-0.4417 -33.93583,-0.89617 z m 19.9796,-54.5727 c -0.32282,-0.32282 -0.58695,-34.20684 -0.58695,-75.29783 0,-65.71644 -0.1835,-74.86318 -1.52418,-75.97585 -1.07696,-0.89379 -3.71695,-1.09911 -8.99744,-0.69975 -6.84894,0.51799 -7.59879,0.38599 -8.97582,-1.57999 -0.82641,-1.17986 -1.50256,-3.371 -1.50256,-4.86919 l 0,-2.72399 56.25,-0.45821 c 30.9375,-0.25202 58.1625,-0.77337 60.5,-1.15855 l 4.25,-0.70032 0,8.45141 c 0,12.48983 -1.17195,26.77042 -2.14746,26.16752 -0.4689,-0.28979 -0.85324,-1.96284 -0.85409,-3.71788 -0.004,-7.38578 -5.54682,-13.24022 -15.41007,-16.27524 -6.50442,-2.00147 -56.28413,-3.91314 -58.30144,-2.23891 -1.02672,0.8521 -1.28694,15.15927 -1.28694,70.75852 l 0,69.69047 -2.75,2.55764 c -1.5125,1.4067 -3.875,3.25253 -5.25,4.10185 -3.14992,1.94566 -12.63076,4.7506 -13.41305,3.9683 z m -82.1034,-134.50361 c 2.57078,-13.00486 5.93844,-27.55329 6.73471,-29.09424 0.6767,-1.30957 1.58047,-1.65567 3.11736,-1.1938 1.19041,0.35774 5.31438,1.21777 9.16438,1.91118 l 7,1.26074 0,5.35402 0,5.35402 -5.60539,1.11927 c -3.08296,0.61561 -6.80439,1.9049 -8.26984,2.8651 -3.06362,2.00736 -7.7697,8.19517 -9.6079,12.63298 -1.67805,4.05116 -3.34825,3.91319 -2.53332,-0.20927 z"
       id="path4158"
       inkscape:connector-curvature="0" />
  </g>
  <path
     style="opacity:0.54000005;fill:none;fill-opacity:1;fill-rule:nonzero;stroke:#ac000e;stroke-width:10.26500034;stroke-linecap:square;stroke-linejoin:round;stroke-miterlimit:4;stroke-dasharray:none;stroke-opacity:1"
     d="m 313.28163,150.28256 a 171.7683,171.7683 0 0 0 -171.38867,164.1836 l 77.53125,0 0,23.33593 -77.04297,0 A 171.7683,171.7683 0 0 0 313.28163,493.81967 171.7683,171.7683 0 0 0 484.2621,337.80209 l -79.45703,0 0,-23.33593 79.97657,0 A 171.7683,171.7683 0 0 0 313.28163,150.28256 Z"
     id="path4198"
     inkscape:connector-curvature="0"
     inkscape:export-xdpi="90"
     inkscape:export-ydpi="90" />
</svg>
